<svg width="44" height="32" viewBox="0 0 44 32" fill="none" xmlns="http://www.w3.org/2000/svg">
<circle opacity="0.2" cx="38" cy="6" r="2" transform="rotate(90 38 6)" fill="#168039"/>
<circle opacity="0.2" cx="26" cy="6" r="2" transform="rotate(90 26 6)" fill="#168039"/>
<circle opacity="0.2" cx="14" cy="6" r="2" transform="rotate(90 14 6)" fill="#168039"/>
<circle opacity="0.2" cx="2" cy="6" r="2" transform="rotate(90 2 6)" fill="#168039"/>
<circle opacity="0.2" cx="38" cy="18" r="2" transform="rotate(90 38 18)" fill="#168039"/>
<circle opacity="0.2" cx="26" cy="18" r="2" transform="rotate(90 26 18)" fill="#168039"/>
<circle opacity="0.2" cx="14" cy="18" r="2" transform="rotate(90 14 18)" fill="#168039"/>
<circle opacity="0.2" cx="2" cy="18" r="2" transform="rotate(90 2 18)" fill="#168039"/>
<circle opacity="0.2" cx="38" cy="30" r="2" transform="rotate(90 38 30)" fill="#168039"/>
<circle opacity="0.2" cx="26" cy="30" r="2" transform="rotate(90 26 30)" fill="#168039"/>
<circle opacity="0.2" cx="14" cy="30" r="2" transform="rotate(90 14 30)" fill="#168039"/>
<circle opacity="0.2" cx="2" cy="30" r="2" transform="rotate(90 2 30)" fill="#168039"/>
</svg>
