<svg width="24" height="24" viewBox="0 0 24 24" fill="none" xmlns="http://www.w3.org/2000/svg">
<path d="M3 9L2.54471 8.10966C2.21037 8.28062 2 8.62449 2 9H3ZM21 9H22C22 8.44772 21.5523 8 21 8V9ZM21 20V21C21.5523 21 22 20.5523 22 20H21ZM3 20H2C2 20.5523 2.44772 21 3 21V20ZM14.7333 3L15.5483 2.42048C15.2607 2.01601 14.7199 1.8837 14.278 2.10966L14.7333 3ZM18.185 9.57952C18.5051 10.0296 19.1294 10.135 19.5795 9.81496C20.0296 9.49489 20.135 8.87056 19.815 8.42048L18.185 9.57952ZM16 15C16 15.5523 16.4477 16 17 16C17.5523 16 18 15.5523 18 15H16ZM3 10H21V8H3V10ZM20 9V20H22V9H20ZM21 19H3V21H21V19ZM4 20V9H2V20H4ZM3.45529 9.89034L15.1886 3.89034L14.278 2.10966L2.54471 8.10966L3.45529 9.89034ZM13.9184 3.57952L18.185 9.57952L19.815 8.42048L15.5483 2.42048L13.9184 3.57952ZM16 13V15H18V13H16Z" fill="#168039"/>
</svg>
