<svg width="26" height="36" viewBox="0 0 26 36" fill="none" xmlns="http://www.w3.org/2000/svg">
<g clip-path="url(#clip0)">
<path d="M12.299 28.3034C12.5394 28.0642 12.7666 27.8121 12.9795 27.5481L13.0015 27.5173C13.8449 28.5909 15.0123 29.424 16.1387 30.2937C14.9815 31.2001 13.8801 32.152 13.0001 33.2681L12.9575 33.2153C12.0775 32.1212 10.9951 31.1825 9.85845 30.2937C10.7077 29.6542 11.5657 29.025 12.299 28.3034ZM13.0001 32.1945C13.6247 31.5168 14.2982 30.8859 15.0153 30.3069C14.3005 29.781 13.6268 29.2015 13.0001 28.5733C12.9297 28.6466 12.8607 28.72 12.7845 28.7962C12.2191 29.3386 11.62 29.8446 10.9907 30.3113C11.7057 30.8889 12.3773 31.5184 13.0001 32.1945Z" fill="#231F20"/>
<path d="M8.4534 15.7194C8.4534 16.6186 8.72006 17.4977 9.21965 18.2454C9.71925 18.9931 10.4293 19.5758 11.2601 19.92C12.0909 20.2641 13.0051 20.3541 13.8871 20.1787C14.769 20.0033 15.5792 19.5702 16.215 18.9344C16.8509 18.2985 17.2839 17.4884 17.4594 16.6064C17.6348 15.7244 17.5448 14.8103 17.2006 13.9795C16.8565 13.1487 16.2737 12.4386 15.526 11.939C14.7784 11.4394 13.8993 11.1727 13.0001 11.1727C11.7942 11.1727 10.6378 11.6518 9.78509 12.5044C8.93242 13.3571 8.4534 14.5135 8.4534 15.7194Z" fill="#3BDE77"/>
<path d="M10.9597 7.41951C10.9594 7.82413 11.0792 8.21974 11.3038 8.55625C11.5285 8.89276 11.848 9.15504 12.2218 9.30988C12.5956 9.46472 13.007 9.50516 13.4038 9.42608C13.8006 9.347 14.165 9.15195 14.4509 8.86564C14.7368 8.57932 14.9314 8.21461 15.0099 7.81768C15.0884 7.42075 15.0473 7.00945 14.892 6.63585C14.7366 6.26225 14.4739 5.94316 14.137 5.71897C13.8002 5.49478 13.4044 5.37557 12.9998 5.37644C12.7314 5.37605 12.4655 5.42863 12.2175 5.53117C11.9694 5.63371 11.7441 5.78419 11.5543 5.97398C11.3645 6.16377 11.214 6.38915 11.1115 6.6372C11.0089 6.88525 10.9564 7.1511 10.9567 7.41951" fill="#3BDE77"/>
<path d="M13.7962 5.30307C14.1413 5.39463 14.5044 5.39397 14.8491 5.30115C15.1939 5.20832 15.5082 5.0266 15.7606 4.77415C16.0131 4.52169 16.1948 4.20737 16.2876 3.86263C16.3805 3.51789 16.3811 3.15481 16.2896 2.80974C15.9445 2.71817 15.5814 2.71883 15.2367 2.81166C14.8919 2.90448 14.5776 3.08621 14.3252 3.33866C14.0727 3.59111 13.891 3.90543 13.7982 4.25017C13.7053 4.59492 13.7047 4.95799 13.7962 5.30307Z" fill="#3BDE77"/>
<path d="M12.299 28.3034C12.5394 28.0642 12.7666 27.8121 12.9795 27.5481L13.0015 27.5173C13.8449 28.5909 15.0123 29.424 16.1387 30.2937C14.9815 31.2001 13.8801 32.152 13.0001 33.2681L12.9575 33.2153C12.0775 32.1212 10.9951 31.1825 9.85845 30.2937C10.7077 29.6542 11.5657 29.025 12.299 28.3034ZM13.0001 32.1945C13.6247 31.5168 14.2982 30.8859 15.0153 30.3069C14.3005 29.781 13.6268 29.2015 13.0001 28.5733C12.9297 28.6466 12.8607 28.72 12.7845 28.7962C12.2191 29.3386 11.62 29.8446 10.9907 30.3113C11.7057 30.8889 12.3773 31.5184 13.0001 32.1945Z" fill="#3BDE77"/>
<path d="M10.9919 30.3111C11.7064 30.8888 12.3775 31.5182 12.9997 32.1943C13.6243 31.5166 14.2979 30.8857 15.0149 30.3067C14.3002 29.7808 13.6265 29.2013 12.9997 28.5731C12.9293 28.6464 12.8604 28.7198 12.7841 28.796C12.2192 29.3383 11.6206 29.8443 10.9919 30.3111Z" fill="#231F20"/>
<path d="M12.9997 31.1853C13.2804 30.9037 13.5854 30.6182 13.9149 30.3288C13.6084 30.0809 13.3019 29.8228 13.0056 29.5485C12.7123 29.8257 12.3999 30.0868 12.0919 30.3347C12.4131 30.6236 12.7196 30.9067 12.9997 31.1853Z" fill="#3BDE77"/>
<path d="M2.29346 19.7483C2.29346 25.1749 6.33999 27.5304 9.85999 30.298C10.7063 29.6585 11.5643 29.0279 12.2961 28.3048C12.5371 28.0663 12.7652 27.8151 12.9796 27.5524L12.9987 27.5201C13.8449 28.5937 15.0124 29.4268 16.1373 30.298C19.6588 27.5333 23.7068 25.1779 23.7068 19.7483C23.7305 18.1417 23.313 16.5595 22.4997 15.1737H19.1851C19.7147 16.0738 19.9857 17.1025 19.9683 18.1467C19.9683 22.84 15.3131 24.0133 13.0001 26.9467L12.9811 26.9056C10.6535 24.0001 6.03199 22.8239 6.03199 18.1467C6.01798 17.1012 6.29362 16.0722 6.82839 15.1737H3.51372C2.69077 16.556 2.26829 18.1398 2.29346 19.7483Z" fill="#4593FD"/>
</g>
<defs>
<clipPath id="clip0">
<rect width="26" height="36" fill="white"/>
</clipPath>
</defs>
</svg>
