<svg width="32" height="32" viewBox="0 0 32 32" fill="none" xmlns="http://www.w3.org/2000/svg">
<path d="M32 16C32 7.16344 24.8366 0 16 0C7.16344 0 0 7.16344 0 16C0 24.8366 7.16344 32 16 32C24.8366 32 32 24.8366 32 16Z" fill="#E8F2EB"/>
<path fill-rule="evenodd" clip-rule="evenodd" d="M15.844 10.8438H12.3433C11.8907 9.82941 11.1283 8.99033 10.9789 8.8259V8.82589C10.9628 8.80819 10.9538 8.79831 10.9531 8.79688C10.8124 8.66562 10.7749 8.46875 10.8499 8.29063C10.9249 8.1125 11.0937 8 11.2812 8C12.1249 8 12.5843 8.3 12.9499 8.54375C13.2781 8.76875 13.5312 8.9375 14.0937 8.9375C14.6562 8.9375 14.9093 8.76875 15.2374 8.54375C15.6031 8.3 16.0624 8 16.9062 8C17.0937 8 17.2624 8.1125 17.3374 8.29063C17.4124 8.46875 17.3749 8.66562 17.2343 8.79688C17.2336 8.79831 17.2246 8.8082 17.2085 8.8259L17.2084 8.826V8.82602C17.0587 8.99075 16.2965 9.82967 15.844 10.8438ZM17.4062 23.5312V22.5938C17.4062 22.3349 17.6161 22.125 17.875 22.125H23.5312C23.7901 22.125 24 22.3349 24 22.5938V23.5312C24 23.7901 23.7901 24 23.5312 24H17.875C17.6161 24 17.4062 23.7901 17.4062 23.5312ZM23.5312 21.1875C23.7901 21.1875 24 20.9776 24 20.7188V19.7812C24 19.5224 23.7901 19.3125 23.5312 19.3125H17.875C17.6161 19.3125 17.4062 19.5224 17.4062 19.7812V20.7188C17.4062 20.9776 17.6161 21.1875 17.875 21.1875H23.5312ZM15.5281 12.7188C15.6781 13.9187 16.4281 14.6813 17.3469 15.5813L17.3486 15.5829C18.1156 16.3356 18.9561 17.1603 19.5228 18.375H17.8438C17.0684 18.375 16.4375 19.0059 16.4375 19.7812V23.5312C16.4375 23.6962 16.4713 23.8528 16.5238 24H10.3438C9.07812 24 8.01875 22.9875 8 21.75C8 18.3656 9.50938 16.8844 10.8406 15.5813C11.7594 14.6813 12.5094 13.9187 12.6594 12.7188H12.2188C11.9562 12.7188 11.75 12.5125 11.75 12.25C11.75 11.9875 11.9562 11.7812 12.2188 11.7812H15.9688C16.2312 11.7812 16.4375 11.9875 16.4375 12.25C16.4375 12.5125 16.2312 12.7188 15.9688 12.7188H15.5281ZM15.5 19.7812C15.5 19.0058 14.8692 18.375 14.0938 18.375C13.8351 18.375 13.625 18.1649 13.625 17.9062C13.625 17.6476 13.8351 17.4375 14.0938 17.4375C14.3524 17.4375 14.5625 17.6476 14.5625 17.9062C14.5625 18.1653 14.7722 18.375 15.0312 18.375C15.2903 18.375 15.5 18.1653 15.5 17.9062C15.5 17.2959 15.1069 16.7805 14.5625 16.5863V16.0312C14.5625 15.7722 14.3528 15.5625 14.0938 15.5625C13.8347 15.5625 13.625 15.7722 13.625 16.0312V16.5863C13.0806 16.7805 12.6875 17.2959 12.6875 17.9062C12.6875 18.6817 13.3183 19.3125 14.0938 19.3125C14.3524 19.3125 14.5625 19.5226 14.5625 19.7812C14.5625 20.0399 14.3524 20.25 14.0938 20.25C13.8351 20.25 13.625 20.0399 13.625 19.7812C13.625 19.5222 13.4153 19.3125 13.1562 19.3125C12.8972 19.3125 12.6875 19.5222 12.6875 19.7812C12.6875 20.3916 13.0806 20.907 13.625 21.1012V21.6562C13.625 21.9153 13.8347 22.125 14.0938 22.125C14.3528 22.125 14.5625 21.9153 14.5625 21.6562V21.1012C15.1069 20.907 15.5 20.3916 15.5 19.7812Z" fill="#27A469"/>
</svg>
