<svg width="145" height="36" viewBox="0 0 145 36" fill="none" xmlns="http://www.w3.org/2000/svg">
<path d="M41.3807 10.7031H38.4901L43.6109 25.2486H46.8637L51.9915 10.7031H49.0938L45.3154 22.152H45.1662L41.3807 10.7031Z" fill="#494949"/>
<path d="M57.4514 25.4616C59.994 25.4616 61.7412 24.2188 62.1957 22.3224L59.7952 22.0526C59.4471 22.9759 58.5949 23.4588 57.4869 23.4588C55.825 23.4588 54.7241 22.3651 54.7028 20.4972H62.3023V19.7088C62.3023 15.8807 60.0011 14.1974 57.3165 14.1974C54.1915 14.1974 52.1531 16.4915 52.1531 19.858C52.1531 23.2812 54.1631 25.4616 57.4514 25.4616ZM54.7099 18.7642C54.7881 17.3722 55.8179 16.2003 57.352 16.2003C58.8292 16.2003 59.8236 17.2798 59.8378 18.7642H54.7099Z" fill="#494949"/>
<path d="M73.0995 17.223C72.7444 15.3764 71.2671 14.1974 68.7103 14.1974C66.0824 14.1974 64.2927 15.4901 64.2998 17.5071C64.2927 19.098 65.2728 20.1491 67.368 20.5824L69.2287 20.973C70.2302 21.1932 70.6989 21.598 70.6989 22.2159C70.6989 22.9616 69.8893 23.5227 68.6677 23.5227C67.4887 23.5227 66.7216 23.0114 66.5015 22.0312L63.9944 22.2727C64.314 24.2756 65.9972 25.4616 68.6748 25.4616C71.402 25.4616 73.3268 24.0483 73.3339 21.9815C73.3268 20.4261 72.3253 19.4744 70.2657 19.027L68.4049 18.6293C67.2969 18.3807 66.8566 17.9972 66.8637 17.3651C66.8566 16.6264 67.6734 16.1151 68.7458 16.1151C69.9319 16.1151 70.5569 16.7614 70.7557 17.4787L73.0995 17.223Z" fill="#494949"/>
<path d="M80.9013 14.3395H78.7493V11.7259H76.1783V14.3395H74.63V16.3281H76.1783V22.3935C76.1641 24.446 77.6556 25.4545 79.5874 25.3977C80.3189 25.3764 80.8232 25.2344 81.1002 25.142L80.667 23.1321C80.5249 23.1676 80.2337 23.2315 79.9141 23.2315C79.2678 23.2315 78.7493 23.0043 78.7493 21.9673V16.3281H80.9013V14.3395Z" fill="#494949"/>
<path d="M86.1908 25.4688C87.9024 25.4688 88.9251 24.6662 89.3939 23.75H89.4791V25.2486H91.9507V17.9474C91.9507 15.0639 89.5998 14.1974 87.5189 14.1974C85.2248 14.1974 83.4635 15.2202 82.8953 17.2088L85.2959 17.5497C85.5515 16.804 86.276 16.1648 87.5331 16.1648C88.7263 16.1648 89.3797 16.7756 89.3797 17.848V17.8906C89.3797 18.6293 88.6055 18.6648 86.6808 18.8707C84.5643 19.098 82.5402 19.7301 82.5402 22.1875C82.5402 24.3324 84.1098 25.4688 86.1908 25.4688ZM86.8584 23.5795C85.7859 23.5795 85.0189 23.0895 85.0189 22.1449C85.0189 21.1577 85.8783 20.7457 87.0288 20.5824C87.7035 20.4901 89.053 20.3196 89.3868 20.0497V21.3352C89.3868 22.5497 88.4067 23.5795 86.8584 23.5795Z" fill="#494949"/>
<path d="M97.1069 18.8565C97.1069 17.2798 98.0587 16.3707 99.4152 16.3707C100.743 16.3707 101.539 17.2443 101.539 18.7003V25.2486H104.11V18.3026C104.117 15.6889 102.625 14.1974 100.374 14.1974C98.7405 14.1974 97.6183 14.9787 97.1212 16.1932H96.9933V14.3395H94.5359V25.2486H97.1069V18.8565Z" fill="#494949"/>
<path d="M111.553 25.4616C114.096 25.4616 115.843 24.2188 116.297 22.3224L113.897 22.0526C113.549 22.9759 112.696 23.4588 111.588 23.4588C109.927 23.4588 108.826 22.3651 108.804 20.4972H116.404V19.7088C116.404 15.8807 114.103 14.1974 111.418 14.1974C108.293 14.1974 106.255 16.4915 106.255 19.858C106.255 23.2812 108.265 25.4616 111.553 25.4616ZM108.811 18.7642C108.89 17.3722 109.919 16.2003 111.454 16.2003C112.931 16.2003 113.925 17.2798 113.939 18.7642H108.811Z" fill="#494949"/>
<path d="M127.201 17.223C126.846 15.3764 125.369 14.1974 122.812 14.1974C120.184 14.1974 118.394 15.4901 118.401 17.5071C118.394 19.098 119.374 20.1491 121.47 20.5824L123.33 20.973C124.332 21.1932 124.8 21.598 124.8 22.2159C124.8 22.9616 123.991 23.5227 122.769 23.5227C121.59 23.5227 120.823 23.0114 120.603 22.0312L118.096 22.2727C118.416 24.2756 120.099 25.4616 122.776 25.4616C125.504 25.4616 127.428 24.0483 127.435 21.9815C127.428 20.4261 126.427 19.4744 124.367 19.027L122.506 18.6293C121.398 18.3807 120.958 17.9972 120.965 17.3651C120.958 16.6264 121.775 16.1151 122.847 16.1151C124.033 16.1151 124.658 16.7614 124.857 17.4787L127.201 17.223Z" fill="#494949"/>
<path d="M129.555 25.2486H132.126V14.3395H129.555V25.2486ZM130.848 12.7912C131.665 12.7912 132.332 12.1662 132.332 11.3991C132.332 10.625 131.665 10 130.848 10C130.024 10 129.357 10.625 129.357 11.3991C129.357 12.1662 130.024 12.7912 130.848 12.7912Z" fill="#494949"/>
<path d="M137.91 25.4688C139.621 25.4688 140.644 24.6662 141.113 23.75H141.198V25.2486H143.669V17.9474C143.669 15.0639 141.319 14.1974 139.238 14.1974C136.944 14.1974 135.182 15.2202 134.614 17.2088L137.015 17.5497C137.27 16.804 137.995 16.1648 139.252 16.1648C140.445 16.1648 141.098 16.7756 141.098 17.848V17.8906C141.098 18.6293 140.324 18.6648 138.4 18.8707C136.283 19.098 134.259 19.7301 134.259 22.1875C134.259 24.3324 135.829 25.4688 137.91 25.4688ZM138.577 23.5795C137.505 23.5795 136.738 23.0895 136.738 22.1449C136.738 21.1577 137.597 20.7457 138.748 20.5824C139.422 20.4901 140.772 20.3196 141.106 20.0497V21.3352C141.106 22.5497 140.125 23.5795 138.577 23.5795Z" fill="#494949"/>
<g clip-path="url(#clip0)">
<path d="M12.2989 28.3035C12.5393 28.0642 12.7665 27.8121 12.9795 27.5481L13.0015 27.5173C13.8448 28.5909 15.0123 29.424 16.1387 30.2937C14.9815 31.2001 13.88 32.152 13 33.2681L12.9575 33.2153C12.0775 32.1212 10.9951 31.1825 9.85841 30.2937C10.7076 29.6543 11.5656 29.0251 12.2989 28.3035ZM13 32.1945C13.6246 31.5169 14.2982 30.886 15.0152 30.3069C14.3005 29.781 13.6268 29.2015 13 28.5733C12.9296 28.6467 12.8607 28.72 12.7844 28.7963C12.219 29.3386 11.6199 29.8446 10.9907 30.3113C11.7057 30.889 12.3773 31.5184 13 32.1945Z" fill="#231F20"/>
<path d="M8.45343 15.7194C8.45343 16.6186 8.72009 17.4977 9.21968 18.2454C9.71928 18.9931 10.4294 19.5758 11.2602 19.92C12.091 20.2641 13.0051 20.3541 13.8871 20.1787C14.7691 20.0033 15.5792 19.5702 16.2151 18.9344C16.8509 18.2985 17.284 17.4884 17.4594 16.6064C17.6348 15.7244 17.5448 14.8103 17.2007 13.9795C16.8565 13.1487 16.2738 12.4386 15.5261 11.939C14.7784 11.4394 13.8993 11.1727 13.0001 11.1727C11.7942 11.1727 10.6378 11.6518 9.78512 12.5044C8.93246 13.3571 8.45343 14.5135 8.45343 15.7194Z" fill="#3BDE77"/>
<path d="M10.9597 7.41954C10.9594 7.82416 11.0791 8.21977 11.3038 8.55628C11.5285 8.89279 11.848 9.15507 12.2218 9.30991C12.5956 9.46475 13.007 9.50519 13.4038 9.42611C13.8006 9.34703 14.165 9.15198 14.4509 8.86567C14.7368 8.57935 14.9313 8.21464 15.0098 7.81771C15.0884 7.42078 15.0473 7.00948 14.892 6.63588C14.7366 6.26228 14.4738 5.94319 14.137 5.719C13.8002 5.49481 13.4044 5.3756 12.9998 5.37647C12.7314 5.37608 12.4655 5.42866 12.2175 5.5312C11.9694 5.63374 11.7441 5.78422 11.5543 5.97401C11.3645 6.1638 11.214 6.38918 11.1115 6.63723C11.0089 6.88528 10.9563 7.15113 10.9567 7.41954" fill="#3BDE77"/>
<path d="M13.7963 5.3031C14.1414 5.39466 14.5044 5.394 14.8492 5.30118C15.1939 5.20836 15.5082 5.02663 15.7607 4.77418C16.0131 4.52172 16.1949 4.2074 16.2877 3.86266C16.3805 3.51792 16.3812 3.15484 16.2896 2.80977C15.9445 2.7182 15.5815 2.71886 15.2367 2.81169C14.892 2.90451 14.5776 3.08624 14.3252 3.33869C14.0727 3.59114 13.891 3.90546 13.7982 4.2502C13.7054 4.59495 13.7047 4.95802 13.7963 5.3031Z" fill="#3BDE77"/>
<path d="M12.2989 28.3035C12.5393 28.0642 12.7665 27.8121 12.9795 27.5481L13.0015 27.5173C13.8448 28.5909 15.0123 29.424 16.1387 30.2937C14.9815 31.2001 13.88 32.152 13 33.2681L12.9575 33.2153C12.0775 32.1212 10.9951 31.1825 9.85841 30.2937C10.7076 29.6543 11.5656 29.0251 12.2989 28.3035ZM13 32.1945C13.6246 31.5169 14.2982 30.886 15.0152 30.3069C14.3005 29.781 13.6268 29.2015 13 28.5733C12.9296 28.6467 12.8607 28.72 12.7844 28.7963C12.219 29.3386 11.6199 29.8446 10.9907 30.3113C11.7057 30.889 12.3773 31.5184 13 32.1945Z" fill="#3BDE77"/>
<path d="M10.9918 30.3111C11.7063 30.8888 12.3774 31.5183 12.9997 32.1943C13.6243 31.5166 14.2979 30.8858 15.0149 30.3067C14.3001 29.7808 13.6265 29.2013 12.9997 28.5731C12.9293 28.6465 12.8604 28.7198 12.7841 28.7961C12.2192 29.3383 11.6206 29.8444 10.9918 30.3111Z" fill="#231F20"/>
<path d="M12.9997 31.1854C13.2803 30.9038 13.5854 30.6183 13.9149 30.3289C13.6084 30.081 13.3018 29.8229 13.0056 29.5486C12.7123 29.8258 12.3999 30.0869 12.0919 30.3347C12.4131 30.6237 12.7196 30.9067 12.9997 31.1854Z" fill="#3BDE77"/>
<path d="M2.29347 19.7482C2.29347 25.1749 6.34001 27.5304 9.86001 30.298C10.7063 29.6585 11.5643 29.0278 12.2961 28.3048C12.5371 28.0662 12.7652 27.8151 12.9796 27.5524L12.9987 27.5201C13.8449 28.5937 15.0124 29.4268 16.1373 30.298C19.6588 27.5333 23.7068 25.1778 23.7068 19.7482C23.7305 18.1417 23.313 16.5594 22.4997 15.1737H19.1851C19.7147 16.0737 19.9857 17.1025 19.9683 18.1466C19.9683 22.84 15.3131 24.0133 13.0001 26.9466L12.9811 26.9056C10.6535 24.0001 6.03201 22.8238 6.03201 18.1466C6.01799 17.1012 6.29364 16.0722 6.82841 15.1737H3.51374C2.69079 16.5559 2.2683 18.1398 2.29347 19.7482Z" fill="#4593FD"/>
</g>
<defs>
<clipPath id="clip0">
<rect width="26" height="36" fill="white"/>
</clipPath>
</defs>
</svg>
