<svg width="24" height="24" viewBox="0 0 24 24" fill="none" xmlns="http://www.w3.org/2000/svg">
<path d="M3 11C3 8.19974 3 6.79961 3.54497 5.73005C4.02433 4.78924 4.78924 4.02433 5.73005 3.54497C6.79961 3 8.19974 3 11 3H13.5C16.3003 3 17.7004 3 18.77 3.54497C19.7108 4.02433 20.4757 4.78924 20.955 5.73005C21.5 6.79961 21.5 8.19974 21.5 11V13.5C21.5 16.3003 21.5 17.7004 20.955 18.77C20.4757 19.7108 19.7108 20.4757 18.77 20.955C17.7004 21.5 16.3003 21.5 13.5 21.5H11C8.19974 21.5 6.79961 21.5 5.73005 20.955C4.78924 20.4757 4.02433 19.7108 3.54497 18.77C3 17.7004 3 16.3003 3 13.5V11Z" stroke="#494949"/>
<path d="M8 18V14C8 11.2386 10.2386 9 13 9H17M17 9L15 7L14 6M17 9L14 12" stroke="#494949" stroke-linecap="round" stroke-linejoin="round"/>
</svg>
