<svg width="24" height="24" viewBox="0 0 24 24" fill="none" xmlns="http://www.w3.org/2000/svg">
<path d="M13.639 19.7969C13.8776 19.4967 14.3114 19.4491 14.608 19.6906C14.9046 19.9321 14.9516 20.3713 14.713 20.6715C14.5366 20.8935 14.3328 21.0922 14.1168 21.255C13.3892 21.826 12.4641 22.0849 11.5454 21.9754C10.6258 21.8659 9.78706 21.3962 9.21464 20.6689C8.97745 20.3676 9.02652 19.9286 9.32423 19.6885C9.62195 19.4484 10.0556 19.4981 10.2928 19.7995C10.638 20.2381 11.1468 20.523 11.7065 20.5896C12.267 20.6564 12.8308 20.4986 13.2826 20.1442C13.4158 20.0437 13.5356 19.927 13.639 19.7969Z" fill="#D9E0EC"/>
<path d="M12.0361 2H11.9648C8.59565 2 5.50654 4.44456 5.20685 7.68096C5.18686 7.91248 5.17324 8.14906 5.16444 8.40391L5.15213 8.99974L5.14969 9.53395L5.16473 9.47306C5.02569 10.151 4.70525 10.7799 4.23653 11.2938L4.16936 11.3802C3.76804 11.9898 3.53744 12.6955 3.50175 13.4242L3.5009 13.6624C3.48041 14.6208 3.80882 15.5691 4.42663 16.3223C5.26444 17.2069 6.34896 17.7346 7.51296 17.8466C10.49 18.1699 13.502 18.1699 16.4873 17.8457C17.6434 17.7393 18.7311 17.2101 19.5338 16.3582C20.1399 15.6331 20.4707 14.763 20.499 13.862L20.5 13.4587C20.4668 12.698 20.2348 11.9917 19.8286 11.3847L19.7669 11.3055L19.6162 11.1282C19.2776 10.7052 19.0303 10.218 18.8896 9.69688L18.845 9.50977L18.8358 9.31353C18.833 9.22527 18.8317 9.1274 18.8312 9.00516L18.8311 8.33206C18.8288 8.07458 18.8212 7.89148 18.8034 7.68536C18.4934 4.44285 15.4034 2 12.0361 2Z" fill="#D9E0EC"/>
</svg>
