<svg width="32" height="32" viewBox="0 0 32 32" fill="none" xmlns="http://www.w3.org/2000/svg">
<path d="M32 16C32 7.16344 24.8366 0 16 0C7.16344 0 0 7.16344 0 16C0 24.8366 7.16344 32 16 32C24.8366 32 32 24.8366 32 16Z" fill="#E8F2EB"/>
<path fill-rule="evenodd" clip-rule="evenodd" d="M22.7205 9H22.7128C22.0036 9 21.4138 9.59254 21.4138 10.3021V12.5172H24V10.2978C24.0032 9.58688 23.4314 9.00687 22.7205 9ZM15.5313 15.7251L14.2503 14.8456C13.8985 14.6057 13.6207 14.0643 13.6207 13.6388V11.819L15.5345 10.8749L17.4483 11.8214V13.6388C17.4483 14.0644 17.1689 14.6057 16.8172 14.8456L15.5313 15.7251ZM14.88 13.1297C14.7863 13.0349 14.6334 13.0342 14.5387 13.128C14.444 13.222 14.4432 13.3749 14.5369 13.4698L15.0924 14.031C15.1374 14.0771 15.199 14.1031 15.2634 14.1035C15.3275 14.1032 15.3893 14.0773 15.4346 14.0319L16.5319 12.934C16.6262 12.8397 16.6264 12.6868 16.5321 12.5925C16.4378 12.4981 16.2849 12.4981 16.1906 12.5924L15.2647 13.5182L14.88 13.1297ZM16.8276 20.4138V21.5137C16.8256 22.1255 17.0672 22.7128 17.4992 23.1461C17.5454 23.1924 17.5934 23.2348 17.6428 23.2784C17.6672 23.3 17.6921 23.322 17.7173 23.3448H9.80846C8.80819 23.3448 8 22.5183 8 21.5182V20.4138H16.8276ZM10.4893 10.1991C10.4893 9.53852 11.0351 9 11.7058 9H21.5024C21.1593 9.34483 20.931 9.79512 20.931 10.3025V21.5179C20.9378 22.5197 20.1317 23.3376 19.1299 23.3448H19.1239C18.1185 23.3376 17.3079 22.5193 17.3103 21.5137V20.1837C17.3111 20.0481 17.2043 19.9364 17.0689 19.931H10.418L10.4893 10.1991ZM13.2654 11.4516C13.1845 11.4931 13.1348 11.5776 13.1379 11.6684V13.6387C13.1379 14.2241 13.496 14.9145 13.9797 15.2445L15.402 16.2169C15.4415 16.2443 15.4883 16.2589 15.5364 16.2589C15.5847 16.2589 15.6318 16.2442 15.6715 16.2169L17.0896 15.2445C17.5736 14.9146 17.931 14.2243 17.931 13.6387V11.6713C17.9339 11.5804 17.8842 11.4961 17.8033 11.4546L15.6377 10.3893C15.5713 10.3564 15.4935 10.3564 15.4271 10.3893L13.2654 11.4516ZM12.3448 17.5517H18.9655C19.0988 17.5517 19.2068 17.4437 19.2068 17.3103C19.2068 17.177 19.0988 17.069 18.9655 17.069H12.3448C12.2114 17.069 12.1034 17.177 12.1034 17.3103C12.1034 17.4437 12.2114 17.5517 12.3448 17.5517Z" fill="#27A469"/>
</svg>
