<svg width="24" height="24" viewBox="0 0 24 24" fill="none" xmlns="http://www.w3.org/2000/svg">
<path d="M9.26721 4.04672C11.8066 4.89441 11.6236 8.51175 11.6236 8.55942L11.6241 8.55994L11.6243 8.56022L11.6239 8.55975C11.6112 8.56008 8.62568 8.65406 7.10974 6.95911C5.59474 5.2643 6.06991 2.35706 6.07291 2.34464L6.07212 2.34375C6.07212 2.34375 6.88699 3.25219 9.26721 4.04672Z" fill="#D9E0EC"/>
<path d="M17.1779 2.34375L17.1771 2.34459C17.1802 2.35706 17.6553 5.26425 16.1403 6.95906C14.6244 8.65402 11.6388 8.56008 11.6261 8.5597L11.6257 8.56017L11.626 8.55989L11.6264 8.55938C11.6264 8.5117 11.4434 4.89436 13.9828 4.04667C16.363 3.25219 17.1779 2.34375 17.1779 2.34375Z" fill="#D9E0EC"/>
<path d="M12.1626 8.5H11.1626V13H12.1626V8.5Z" fill="#D9E0EC"/>
<path d="M14.7143 13H9.28571C5.26193 13 2 16.2619 2 20.2857C2 21.2325 2.76751 22 3.71428 22H20.2857C21.2325 22 22 21.2325 22 20.2857C22 16.2619 18.7381 13 14.7143 13Z" fill="#D9E0EC"/>
</svg>
