<svg width="24" height="24" viewBox="0 0 24 24" fill="none" xmlns="http://www.w3.org/2000/svg">
<path d="M9.26721 3.70297C11.8066 4.55066 11.6236 8.168 11.6236 8.21567L11.6241 8.21619L11.6243 8.21647L11.6239 8.216C11.6112 8.21633 8.62568 8.31031 7.10974 6.61536C5.59474 4.92055 6.06991 2.01331 6.07291 2.00089L6.07212 2C6.07212 2 6.88699 2.90844 9.26721 3.70297Z" fill="#ACD670"/>
<path d="M17.1777 2L17.177 2.00084C17.18 2.01331 17.6551 4.9205 16.1401 6.61531C14.6242 8.31027 11.6386 8.21633 11.6259 8.21595C11.6259 8.16828 11.4433 4.55061 13.9827 3.70292C16.3628 2.90844 17.1777 2 17.1777 2Z" fill="#ACD670"/>
<path d="M12.1626 7.5H11.1626V13H12.1626V7.5Z" fill="#ACD670"/>
<path d="M14.7143 13H9.28571C5.26193 13 2 16.2619 2 20.2857C2 21.2325 2.76751 22 3.71428 22H20.2857C21.2325 22 22 21.2325 22 20.2857C22 16.2619 18.7381 13 14.7143 13Z" fill="#168039"/>
</svg>
