<svg width="32" height="32" viewBox="0 0 32 32" fill="none" xmlns="http://www.w3.org/2000/svg">
<path d="M32 16C32 7.16344 24.8366 0 16 0C7.16344 0 0 7.16344 0 16C0 24.8366 7.16344 32 16 32C24.8366 32 32 24.8366 32 16Z" fill="#E8F2EB"/>
<path fill-rule="evenodd" clip-rule="evenodd" d="M20.4461 21.2862C20.367 21.4395 20.1784 21.4997 20.0251 21.4205C19.8717 21.3414 19.8116 21.1529 19.8906 20.9995C20.2038 20.3927 20.366 19.7382 20.3741 19.0534L19.2365 18.8442C19.0882 18.817 18.9805 18.6877 18.9805 18.5369C18.9805 18.3363 18.8172 18.1732 18.6165 18.1732C18.0711 18.1732 17.6249 17.7295 17.6249 17.1841V16.7878C17.6249 16.5272 17.7331 16.2723 17.9173 16.0885C17.9484 16.0575 17.951 16.056 18.1372 15.9486C18.2525 15.8822 18.4381 15.7752 18.7443 15.5955C18.2493 15.1955 17.6762 14.909 17.0602 14.7553C16.5433 15.372 15.5669 16.3773 15.1378 16.4533L14.7355 16.524C14.6399 16.5409 14.5564 16.5941 14.5007 16.6738C14.408 16.8062 14.4343 16.9296 14.4573 17.0371C14.4648 17.0726 14.472 17.1064 14.4745 17.1382C14.4987 17.2343 14.5308 17.3862 14.3968 17.5105C14.3139 17.5874 14.1943 17.6144 14.0848 17.5776C13.9972 17.5482 13.9458 17.494 13.9146 17.4373C13.8242 17.5762 13.776 17.7358 13.7812 17.8969C13.7892 18.1431 13.9222 18.3635 14.1555 18.5177L14.1612 18.5213C14.8098 18.2615 15.5478 18.4611 15.9703 19.0311C16.1773 19.3099 16.5184 19.4458 16.8603 19.3854L17.448 19.2819C17.6178 19.2519 17.7799 19.3655 17.8099 19.5354L17.9274 20.2017C18.0053 20.644 17.9052 21.0889 17.6454 21.4547C17.4089 21.7879 17.1685 21.9974 16.9563 22.1823L16.9562 22.1824C16.6385 22.4593 16.4286 22.6422 16.3547 23.1396C16.3398 23.24 16.2776 23.3247 16.1907 23.3703C16.8483 23.3414 17.4952 23.1641 18.0724 22.8522C18.2243 22.7702 18.4139 22.8267 18.4959 22.9786C18.578 23.1304 18.5214 23.32 18.3696 23.4021C17.6456 23.7933 16.8262 24 16 24C13.243 24 11 21.757 11 19C11 16.3878 13.029 14.1757 15.6875 14.0102V12.0625C15.6875 11.7179 15.4071 11.4375 15.0625 11.4375C13.3393 11.4375 11.9375 10.0357 11.9375 8.3125C11.9375 8.13994 12.0774 8 12.25 8H13.1875C14.4229 8 15.4931 8.72063 16 9.76359C16.5069 8.72063 17.5771 8 18.8125 8H19.75C19.9226 8 20.0625 8.13994 20.0625 8.3125C20.0625 10.0357 18.6607 11.4375 16.9375 11.4375C16.5929 11.4375 16.3125 11.7179 16.3125 12.0625V14.0101C16.542 14.0244 16.7704 14.0542 16.9948 14.0996L17.0038 14.1013C19.2789 14.5665 21 16.5812 21 19C21 19.7936 20.8085 20.5841 20.4461 21.2862ZM16.9688 20.0009C16.3926 20.1026 15.8175 19.8737 15.4684 19.4034C15.2391 19.0942 14.8523 18.9693 14.4917 19.0687L14.6884 19.3338C15.0026 19.7572 15.0157 20.3295 14.7239 20.7664L14.9355 20.9147C15.2078 21.105 15.3895 21.3903 15.4471 21.7177C15.4776 21.8904 15.5005 21.9463 15.5086 21.9621C15.5243 21.9733 15.5416 21.9844 15.5605 21.9966C15.6517 22.0554 15.7799 22.1381 15.9565 22.3716C16.1168 22.0849 16.3333 21.8962 16.5454 21.7114L16.5456 21.7112L16.5457 21.7112C16.7406 21.5413 16.9422 21.3656 17.1357 21.0929C17.298 20.8644 17.3606 20.5865 17.3119 20.3102L17.2487 19.9516L16.9688 20.0009ZM14.1967 20.4303C14.3496 20.2117 14.3456 19.9206 14.1866 19.7062L13.735 19.0975L12.1204 18.389C11.9585 18.3181 11.8241 18.2077 11.7244 18.0742C11.6587 18.3775 11.625 18.6882 11.625 19C11.625 21.3817 13.5381 23.3248 15.9083 23.3739C15.8574 23.3489 15.8129 23.3106 15.7812 23.2603L15.4628 22.7548C15.3459 22.599 15.2773 22.5557 15.2108 22.5138C15.0063 22.3849 14.9084 22.2608 14.8317 21.8263C14.803 21.6632 14.7126 21.5214 14.5772 21.4268L14.1095 21.0991C13.9681 21.0001 13.9338 20.805 14.0329 20.6637L14.1967 20.4303ZM14.6272 15.9085L15.0192 15.8396C15.1941 15.7726 15.7884 15.2492 16.3365 14.638C16.2245 14.6294 16.1122 14.625 16 14.625C14.4242 14.625 12.9794 15.4693 12.1987 16.8365C12.2398 17.019 12.2302 17.2112 12.1691 17.3914C12.1132 17.5557 12.2021 17.7424 12.3713 17.8166L13.1908 18.1762C13.1711 18.0919 13.1595 18.0052 13.1567 17.9171C13.1417 17.4549 13.363 17.0044 13.7488 16.7122C13.7761 16.6914 13.8049 16.6745 13.8347 16.6611C13.8628 16.5386 13.9145 16.4214 13.9887 16.3154C14.1402 16.0989 14.367 15.9545 14.6272 15.9085ZM18.25 17.1841C18.25 17.3848 18.4158 17.5481 18.6166 17.5481C19.0694 17.5481 19.4522 17.8539 19.569 18.2699L20.3349 18.4107C20.2153 17.5264 19.8285 16.7029 19.2205 16.0416L18.3358 16.5562C18.2825 16.6208 18.25 16.7034 18.25 16.7878V17.1841ZM19.3438 22.5938C19.5163 22.5938 19.6562 22.4538 19.6562 22.2812C19.6562 22.1087 19.5163 21.9688 19.3438 21.9688C19.1712 21.9688 19.0312 22.1087 19.0312 22.2812C19.0312 22.4538 19.1712 22.5938 19.3438 22.5938Z" fill="#27A469"/>
</svg>
